<mxfile host="app.diagrams.net" modified="2023-08-25T08:44:04.249Z" agent="Mozilla/5.0 (Macintosh; Intel Mac OS X 10_15_7) AppleWebKit/537.36 (KHTML, like Gecko) Chrome/115.0.0.0 Safari/537.36" etag="JxkqHy09ldPW_YS2VkWW" version="21.2.9" type="google">
  <diagram id="C5RBs43oDa-KdzZeNtuy" name="Page-1">
    <mxGraphModel grid="1" page="1" gridSize="10" guides="1" tooltips="1" connect="1" arrows="1" fold="1" pageScale="1" pageWidth="3300" pageHeight="4681" math="0" shadow="0">
      <root>
        <mxCell id="WIyWlLk6GJQsqaUBKTNV-0" />
        <mxCell id="WIyWlLk6GJQsqaUBKTNV-1" parent="WIyWlLk6GJQsqaUBKTNV-0" />
        <mxCell id="DvchbdSIZYe9JUQncs_V-17" style="edgeStyle=orthogonalEdgeStyle;rounded=0;jumpStyle=arc;orthogonalLoop=1;jettySize=auto;html=1;exitX=0;exitY=0.5;exitDx=0;exitDy=0;entryX=1;entryY=0.5;entryDx=0;entryDy=0;fontSize=15;" edge="1" parent="WIyWlLk6GJQsqaUBKTNV-1" source="Uee_pW1o9Q6JT7-i02Te-5" target="Uee_pW1o9Q6JT7-i02Te-7">
          <mxGeometry relative="1" as="geometry" />
        </mxCell>
        <mxCell id="Uee_pW1o9Q6JT7-i02Te-5" value="Pedersen Commitment" style="whiteSpace=wrap;html=1;fillColor=#f5f5f5;strokeColor=#666666;fontColor=#333333;" vertex="1" parent="WIyWlLk6GJQsqaUBKTNV-1">
          <mxGeometry x="670" y="400" width="100" height="60" as="geometry" />
        </mxCell>
        <mxCell id="Uee_pW1o9Q6JT7-i02Te-7" value="&lt;div&gt;Verify Equality&lt;/div&gt;" style="whiteSpace=wrap;html=1;fillColor=#f5f5f5;strokeColor=#666666;fontColor=#333333;" vertex="1" parent="WIyWlLk6GJQsqaUBKTNV-1">
          <mxGeometry x="520" y="400" width="100" height="60" as="geometry" />
        </mxCell>
        <mxCell id="Uee_pW1o9Q6JT7-i02Te-8" value="&lt;div&gt;Conditionally&lt;/div&gt;&lt;div&gt;Verify Equality&lt;/div&gt;" style="whiteSpace=wrap;html=1;fillColor=#f5f5f5;strokeColor=#666666;fontColor=#333333;" vertex="1" parent="WIyWlLk6GJQsqaUBKTNV-1">
          <mxGeometry x="520" y="160" width="100" height="60" as="geometry" />
        </mxCell>
        <mxCell id="DvchbdSIZYe9JUQncs_V-18" style="edgeStyle=orthogonalEdgeStyle;rounded=0;jumpStyle=arc;orthogonalLoop=1;jettySize=auto;html=1;exitX=0.5;exitY=0;exitDx=0;exitDy=0;entryX=0.5;entryY=1;entryDx=0;entryDy=0;fontSize=15;" edge="1" parent="WIyWlLk6GJQsqaUBKTNV-1" source="Uee_pW1o9Q6JT7-i02Te-9" target="Uee_pW1o9Q6JT7-i02Te-7">
          <mxGeometry relative="1" as="geometry" />
        </mxCell>
        <mxCell id="DvchbdSIZYe9JUQncs_V-19" style="edgeStyle=orthogonalEdgeStyle;rounded=0;jumpStyle=arc;orthogonalLoop=1;jettySize=auto;html=1;exitX=0.5;exitY=0;exitDx=0;exitDy=0;entryX=0;entryY=0.5;entryDx=0;entryDy=0;fontSize=15;" edge="1" parent="WIyWlLk6GJQsqaUBKTNV-1" source="Uee_pW1o9Q6JT7-i02Te-9" target="DvchbdSIZYe9JUQncs_V-8">
          <mxGeometry relative="1" as="geometry">
            <Array as="points">
              <mxPoint x="570" y="480" />
              <mxPoint x="490" y="480" />
              <mxPoint x="490" y="310" />
            </Array>
          </mxGeometry>
        </mxCell>
        <mxCell id="Uee_pW1o9Q6JT7-i02Te-9" value="&lt;font style=&quot;font-size: 12px&quot;&gt;Verifying Key Commitment&lt;/font&gt;" style="shape=parallelogram;perimeter=parallelogramPerimeter;whiteSpace=wrap;html=1;fixedSize=1;fillColor=#f5f5f5;strokeColor=#666666;fontColor=#333333;" vertex="1" parent="WIyWlLk6GJQsqaUBKTNV-1">
          <mxGeometry x="520" y="500" width="100" height="60" as="geometry" />
        </mxCell>
        <mxCell id="DvchbdSIZYe9JUQncs_V-16" style="edgeStyle=orthogonalEdgeStyle;rounded=0;jumpStyle=arc;orthogonalLoop=1;jettySize=auto;html=1;exitX=0.5;exitY=0;exitDx=0;exitDy=0;entryX=0.5;entryY=1;entryDx=0;entryDy=0;fontSize=15;" edge="1" parent="WIyWlLk6GJQsqaUBKTNV-1" source="Uee_pW1o9Q6JT7-i02Te-10" target="Uee_pW1o9Q6JT7-i02Te-5">
          <mxGeometry relative="1" as="geometry" />
        </mxCell>
        <mxCell id="DvchbdSIZYe9JUQncs_V-20" style="edgeStyle=orthogonalEdgeStyle;rounded=0;jumpStyle=arc;orthogonalLoop=1;jettySize=auto;html=1;exitX=0.5;exitY=0;exitDx=0;exitDy=0;entryX=0.5;entryY=1;entryDx=0;entryDy=0;fontSize=15;" edge="1" parent="WIyWlLk6GJQsqaUBKTNV-1" source="Uee_pW1o9Q6JT7-i02Te-10" target="DvchbdSIZYe9JUQncs_V-8">
          <mxGeometry relative="1" as="geometry">
            <Array as="points">
              <mxPoint x="720" y="480" />
              <mxPoint x="650" y="480" />
              <mxPoint x="650" y="380" />
              <mxPoint x="570" y="380" />
            </Array>
          </mxGeometry>
        </mxCell>
        <mxCell id="Uee_pW1o9Q6JT7-i02Te-10" value="Verifying Key" style="shape=trapezoid;perimeter=trapezoidPerimeter;whiteSpace=wrap;html=1;fixedSize=1;fillColor=#f5f5f5;strokeColor=#666666;fontColor=#333333;" vertex="1" parent="WIyWlLk6GJQsqaUBKTNV-1">
          <mxGeometry x="670" y="500" width="100" height="60" as="geometry" />
        </mxCell>
        <mxCell id="DvchbdSIZYe9JUQncs_V-23" style="edgeStyle=orthogonalEdgeStyle;rounded=0;jumpStyle=arc;orthogonalLoop=1;jettySize=auto;html=1;exitX=0.5;exitY=1;exitDx=0;exitDy=0;entryX=0.5;entryY=0;entryDx=0;entryDy=0;fontSize=15;" edge="1" parent="WIyWlLk6GJQsqaUBKTNV-1" source="Uee_pW1o9Q6JT7-i02Te-11" target="DvchbdSIZYe9JUQncs_V-21">
          <mxGeometry relative="1" as="geometry" />
        </mxCell>
        <mxCell id="Uee_pW1o9Q6JT7-i02Te-11" value="&lt;div&gt;&lt;font style=&quot;font-size: 12px&quot;&gt;Final Block&lt;br&gt;Hash&lt;/font&gt;&lt;/div&gt;" style="shape=parallelogram;perimeter=parallelogramPerimeter;whiteSpace=wrap;html=1;fixedSize=1;fillColor=#f5f5f5;strokeColor=#666666;fontColor=#333333;" vertex="1" parent="WIyWlLk6GJQsqaUBKTNV-1">
          <mxGeometry x="860" y="60" width="100" height="60" as="geometry" />
        </mxCell>
        <mxCell id="DvchbdSIZYe9JUQncs_V-6" style="edgeStyle=orthogonalEdgeStyle;rounded=0;orthogonalLoop=1;jettySize=auto;html=1;exitX=0.5;exitY=1;exitDx=0;exitDy=0;entryX=1;entryY=0.5;entryDx=0;entryDy=0;fontSize=15;" edge="1" parent="WIyWlLk6GJQsqaUBKTNV-1" source="Uee_pW1o9Q6JT7-i02Te-13" target="Uee_pW1o9Q6JT7-i02Te-8">
          <mxGeometry relative="1" as="geometry" />
        </mxCell>
        <mxCell id="DvchbdSIZYe9JUQncs_V-9" style="edgeStyle=orthogonalEdgeStyle;rounded=0;orthogonalLoop=1;jettySize=auto;html=1;exitX=0.5;exitY=1;exitDx=0;exitDy=0;entryX=1;entryY=0.5;entryDx=0;entryDy=0;fontSize=15;" edge="1" parent="WIyWlLk6GJQsqaUBKTNV-1" source="Uee_pW1o9Q6JT7-i02Te-13" target="DvchbdSIZYe9JUQncs_V-8">
          <mxGeometry relative="1" as="geometry" />
        </mxCell>
        <mxCell id="DvchbdSIZYe9JUQncs_V-22" style="edgeStyle=orthogonalEdgeStyle;rounded=0;jumpStyle=arc;orthogonalLoop=1;jettySize=auto;html=1;exitX=0.5;exitY=1;exitDx=0;exitDy=0;entryX=0;entryY=0.5;entryDx=0;entryDy=0;fontSize=15;" edge="1" parent="WIyWlLk6GJQsqaUBKTNV-1" source="Uee_pW1o9Q6JT7-i02Te-13" target="DvchbdSIZYe9JUQncs_V-21">
          <mxGeometry relative="1" as="geometry">
            <Array as="points">
              <mxPoint x="730" y="310" />
            </Array>
          </mxGeometry>
        </mxCell>
        <mxCell id="Uee_pW1o9Q6JT7-i02Te-13" value="&lt;div&gt;Intermediate&lt;/div&gt;&lt;div&gt;Block Hash&lt;/div&gt;" style="shape=trapezoid;perimeter=trapezoidPerimeter;whiteSpace=wrap;html=1;fixedSize=1;fillColor=#f5f5f5;strokeColor=#666666;fontColor=#333333;" vertex="1" parent="WIyWlLk6GJQsqaUBKTNV-1">
          <mxGeometry x="680" y="60" width="100" height="60" as="geometry" />
        </mxCell>
        <mxCell id="DvchbdSIZYe9JUQncs_V-5" style="edgeStyle=orthogonalEdgeStyle;rounded=0;orthogonalLoop=1;jettySize=auto;html=1;exitX=1;exitY=0.5;exitDx=0;exitDy=0;entryX=0;entryY=0.5;entryDx=0;entryDy=0;fontSize=15;" edge="1" parent="WIyWlLk6GJQsqaUBKTNV-1" source="Uee_pW1o9Q6JT7-i02Te-20" target="Uee_pW1o9Q6JT7-i02Te-8">
          <mxGeometry relative="1" as="geometry" />
        </mxCell>
        <mxCell id="DvchbdSIZYe9JUQncs_V-13" style="edgeStyle=orthogonalEdgeStyle;rounded=0;jumpStyle=arc;orthogonalLoop=1;jettySize=auto;html=1;exitX=1;exitY=0.5;exitDx=0;exitDy=0;entryX=0.5;entryY=0;entryDx=0;entryDy=0;fontSize=15;" edge="1" parent="WIyWlLk6GJQsqaUBKTNV-1" source="Uee_pW1o9Q6JT7-i02Te-20" target="DvchbdSIZYe9JUQncs_V-8">
          <mxGeometry relative="1" as="geometry">
            <Array as="points">
              <mxPoint x="470" y="190" />
              <mxPoint x="470" y="250" />
              <mxPoint x="570" y="250" />
            </Array>
          </mxGeometry>
        </mxCell>
        <mxCell id="Uee_pW1o9Q6JT7-i02Te-20" value="&lt;div&gt;Genesis&lt;/div&gt;&lt;div&gt;Flag&lt;br&gt;&lt;/div&gt;" style="shape=trapezoid;perimeter=trapezoidPerimeter;whiteSpace=wrap;html=1;fixedSize=1;fillColor=#f5f5f5;strokeColor=#666666;fontColor=#333333;" vertex="1" parent="WIyWlLk6GJQsqaUBKTNV-1">
          <mxGeometry x="350" y="160" width="100" height="60" as="geometry" />
        </mxCell>
        <mxCell id="DvchbdSIZYe9JUQncs_V-0" value="Circuit" style="text;html=1;strokeColor=none;fillColor=none;align=center;verticalAlign=middle;whiteSpace=wrap;rounded=0;fontSize=15;" vertex="1" parent="WIyWlLk6GJQsqaUBKTNV-1">
          <mxGeometry x="460" y="130" width="60" height="30" as="geometry" />
        </mxCell>
        <mxCell id="DvchbdSIZYe9JUQncs_V-4" style="edgeStyle=orthogonalEdgeStyle;rounded=0;orthogonalLoop=1;jettySize=auto;html=1;exitX=0.5;exitY=1;exitDx=0;exitDy=0;entryX=0.5;entryY=0;entryDx=0;entryDy=0;fontSize=15;" edge="1" parent="WIyWlLk6GJQsqaUBKTNV-1" source="DvchbdSIZYe9JUQncs_V-2" target="Uee_pW1o9Q6JT7-i02Te-8">
          <mxGeometry relative="1" as="geometry" />
        </mxCell>
        <mxCell id="DvchbdSIZYe9JUQncs_V-15" style="edgeStyle=orthogonalEdgeStyle;rounded=0;jumpStyle=arc;orthogonalLoop=1;jettySize=auto;html=1;exitX=0.5;exitY=1;exitDx=0;exitDy=0;entryX=0.5;entryY=1;entryDx=0;entryDy=0;fontSize=15;" edge="1" parent="WIyWlLk6GJQsqaUBKTNV-1" source="DvchbdSIZYe9JUQncs_V-2" target="DvchbdSIZYe9JUQncs_V-8">
          <mxGeometry relative="1" as="geometry">
            <Array as="points">
              <mxPoint x="570" y="140" />
              <mxPoint x="660" y="140" />
              <mxPoint x="660" y="360" />
              <mxPoint x="570" y="360" />
            </Array>
          </mxGeometry>
        </mxCell>
        <mxCell id="DvchbdSIZYe9JUQncs_V-2" value="&lt;div&gt;&lt;font style=&quot;font-size: 12px&quot;&gt;Genesis Block Hash&lt;/font&gt;&lt;/div&gt;" style="shape=parallelogram;perimeter=parallelogramPerimeter;whiteSpace=wrap;html=1;fixedSize=1;fillColor=#f5f5f5;strokeColor=#666666;fontColor=#333333;" vertex="1" parent="WIyWlLk6GJQsqaUBKTNV-1">
          <mxGeometry x="520" y="60" width="100" height="60" as="geometry" />
        </mxCell>
        <mxCell id="DvchbdSIZYe9JUQncs_V-24" style="edgeStyle=orthogonalEdgeStyle;rounded=0;jumpStyle=arc;orthogonalLoop=1;jettySize=auto;html=1;exitX=0.5;exitY=0;exitDx=0;exitDy=0;entryX=0.5;entryY=1;entryDx=0;entryDy=0;fontSize=15;" edge="1" parent="WIyWlLk6GJQsqaUBKTNV-1" source="DvchbdSIZYe9JUQncs_V-3" target="DvchbdSIZYe9JUQncs_V-21">
          <mxGeometry relative="1" as="geometry" />
        </mxCell>
        <mxCell id="DvchbdSIZYe9JUQncs_V-3" value="&lt;div&gt;Macro Block Wrapper&lt;br&gt;&lt;/div&gt;&lt;div&gt;Proof&lt;/div&gt;" style="shape=trapezoid;perimeter=trapezoidPerimeter;whiteSpace=wrap;html=1;fixedSize=1;fillColor=#f5f5f5;strokeColor=#666666;fontColor=#333333;" vertex="1" parent="WIyWlLk6GJQsqaUBKTNV-1">
          <mxGeometry x="860" y="500" width="100" height="60" as="geometry" />
        </mxCell>
        <mxCell id="DvchbdSIZYe9JUQncs_V-14" style="edgeStyle=orthogonalEdgeStyle;rounded=0;jumpStyle=arc;orthogonalLoop=1;jettySize=auto;html=1;exitX=1;exitY=0.5;exitDx=0;exitDy=0;entryX=0;entryY=0.5;entryDx=0;entryDy=0;fontSize=15;" edge="1" parent="WIyWlLk6GJQsqaUBKTNV-1" source="DvchbdSIZYe9JUQncs_V-7" target="DvchbdSIZYe9JUQncs_V-8">
          <mxGeometry relative="1" as="geometry" />
        </mxCell>
        <mxCell id="DvchbdSIZYe9JUQncs_V-7" value="&lt;div&gt;Merger&lt;/div&gt;&lt;div&gt;Wrapper&lt;br&gt;&lt;/div&gt;&lt;div&gt;Proof&lt;/div&gt;" style="shape=trapezoid;perimeter=trapezoidPerimeter;whiteSpace=wrap;html=1;fixedSize=1;fillColor=#f5f5f5;strokeColor=#666666;fontColor=#333333;" vertex="1" parent="WIyWlLk6GJQsqaUBKTNV-1">
          <mxGeometry x="350" y="280" width="100" height="60" as="geometry" />
        </mxCell>
        <mxCell id="DvchbdSIZYe9JUQncs_V-8" value="&lt;div&gt;Conditionally&lt;/div&gt;&lt;div&gt;Verify Proof&lt;/div&gt;" style="whiteSpace=wrap;html=1;fillColor=#f5f5f5;strokeColor=#666666;fontColor=#333333;" vertex="1" parent="WIyWlLk6GJQsqaUBKTNV-1">
          <mxGeometry x="520" y="280" width="100" height="60" as="geometry" />
        </mxCell>
        <mxCell id="DvchbdSIZYe9JUQncs_V-21" value="&lt;div&gt;Verify Proof&lt;/div&gt;" style="whiteSpace=wrap;html=1;fillColor=#f5f5f5;strokeColor=#666666;fontColor=#333333;" vertex="1" parent="WIyWlLk6GJQsqaUBKTNV-1">
          <mxGeometry x="860" y="280" width="100" height="60" as="geometry" />
        </mxCell>
        <mxCell id="DvchbdSIZYe9JUQncs_V-26" value="" style="outlineConnect=0;gradientColor=none;html=1;whiteSpace=wrap;fontSize=12;fontStyle=0;strokeColor=#879196;fillColor=none;verticalAlign=top;align=center;fontColor=#879196;dashed=1;spacingTop=3;rounded=0;" vertex="1" parent="WIyWlLk6GJQsqaUBKTNV-1">
          <mxGeometry x="460" y="130" width="510" height="360" as="geometry" />
        </mxCell>
      </root>
    </mxGraphModel>
  </diagram>
</mxfile>
